<?xml version="1.0" encoding="UTF-8"?>
<svg xmlns="http://www.w3.org/2000/svg" xmlns:xlink="http://www.w3.org/1999/xlink" viewBox="0 0 96 96" width="96px" height="96px">
<g id="surface21614452">
<path style=" stroke:none;fill-rule:nonzero;fill:rgb(54.509807%,76.47059%,29.019609%);fill-opacity:1;" d="M 48.003906 8 C 25.847656 8 8.003906 25.847656 8.003906 48 C 8.003906 70.152344 25.847656 88 48.003906 88 C 70.152344 88 88 70.152344 88 48 C 88 25.847656 70.152344 8 48.003906 8 Z M 48.003906 8 "/>
<path style=" stroke:none;fill-rule:nonzero;fill:rgb(100%,100%,100%);fill-opacity:1;" d="M 63.492188 67.828125 C 62.910156 67.828125 62.324219 67.539062 61.738281 67.246094 C 56.1875 64.03125 49.460938 62.277344 42.15625 62.277344 C 38.0625 62.277344 33.96875 62.859375 30.171875 63.738281 C 29.585938 63.738281 28.707031 64.03125 28.414062 64.03125 C 26.953125 64.03125 26.078125 62.859375 26.078125 61.691406 C 26.078125 60.230469 26.953125 59.351562 28.125 59.0625 C 32.800781 57.890625 37.476562 57.308594 42.445312 57.308594 C 50.632812 57.308594 58.230469 59.351562 64.660156 63.15625 C 65.539062 63.738281 66.125 64.324219 66.125 65.785156 C 65.832031 66.957031 64.660156 67.828125 63.492188 67.828125 Z M 67.585938 57.890625 C 66.710938 57.890625 66.125 57.601562 65.539062 57.308594 C 59.402344 53.507812 50.925781 51.164062 41.28125 51.164062 C 36.601562 51.164062 32.21875 51.753906 29.003906 52.632812 C 28.125 52.921875 27.832031 52.921875 27.246094 52.921875 C 25.492188 52.921875 24.324219 51.460938 24.324219 49.996094 C 24.324219 48.242188 25.203125 47.367188 26.660156 46.785156 C 31.046875 45.617188 35.433594 44.738281 41.570312 44.738281 C 51.511719 44.738281 61.15625 47.078125 68.757812 51.753906 C 69.925781 52.332031 70.511719 53.507812 70.511719 54.675781 C 70.511719 56.429688 69.339844 57.890625 67.585938 57.890625 Z M 72.265625 46.203125 C 71.386719 46.203125 71.09375 45.910156 70.21875 45.621094 C 63.203125 41.527344 52.679688 39.1875 42.449219 39.1875 C 37.1875 39.1875 31.925781 39.773438 27.246094 40.941406 C 26.660156 40.941406 26.078125 41.230469 25.203125 41.230469 C 23.15625 41.523438 21.695312 39.773438 21.695312 37.722656 C 21.695312 35.679688 22.863281 34.511719 24.324219 34.214844 C 29.878906 32.460938 35.722656 31.875 42.449219 31.875 C 53.554688 31.875 65.246094 34.214844 74.019531 39.183594 C 75.1875 39.769531 76.0625 40.9375 76.0625 42.691406 C 75.773438 44.738281 74.308594 46.203125 72.265625 46.203125 Z M 72.265625 46.203125 "/>
</g>
</svg>
