<svg id="papv2" xmlns="http://www.w3.org/2000/svg" xmlns:xlink="http://www.w3.org/1999/xlink" viewBox="0 0 683 512" shape-rendering="geometricPrecision" text-rendering="geometricPrecision"><path id="papv2-head" d="M0,-92.849606L65.654586,-65.654586L92.849606,0L65.654586,65.654586L0,92.849606L-65.654586,65.654586L-92.849606,0L-65.654586,-65.654586L0,-92.849606Z" transform="matrix(0.977664 0 0 0.900701 341.5 287.833605)" fill="rgb(247,103,60)" stroke="rgb(0,0,0)" stroke-width="3"/><path id="papv2-path1" display="none" d="M252.3217,288.249757L278.391975,346.254178L341.508578,370.52491L404.69717,346.254178Q430.699429,288.249756,430.699429,288.249757C400.93002,322.068414,367.109902,292.5448,340.842135,281.324821C310.257968,298.934602,290.101211,315.018787,252.3217,288.249757Z" transform="matrix(1 0 0 1 -0.008578 -0.416152)" fill="rgb(254,253,253)" stroke="none" stroke-width="1.366"/><polygon id="papv2-white-snout-1" display="none" points="0,-68.3 58.912937,-34.0134 59.149535,34.15 0,68.0268 -59.149535,34.15 -58.912937,-34.0134 0,-68.3" transform="matrix(0.978315 0 0 0.646557 340.842134 325.484661)" fill="rgb(255,255,255)" stroke="none" stroke-width="0"/><path id="papv2-snout" d="M252.313122,287.833605L278.383397,345.838026L341.5,370.108758L404.688592,345.838025L430.690851,287.833603C404.903012,299.699784,360.307588,297.41005,341.5,272.679868C323.725173,297.036285,278.952462,298.472651,252.313122,287.833605Z" transform="matrix(1 0 0 1 0.000003 0.000003)" fill="rgb(255,244,244)" stroke="rgb(0,0,0)" stroke-width="1.366"/><g id="papv2-ears" transform="matrix(0.988558 0 0 1 3.182617 18.119291)"><g id="papv2-left" transform="matrix(0.999003 0.044641 -0.044641 0.999003 7.830063 -12.97044)"><polygon id="papv2-left-o" points="0,-68.3 59.149535,34.15 -59.149535,34.15 0,-68.3" transform="matrix(0.475956 -0.206422 0.245957 0.567114 298.520582 178.511924)" fill="rgb(247,103,60)" stroke="rgb(0,0,0)" stroke-width="4"/><polygon id="papv2-left-i" points="-17.707027,-68.3 23.735481,3.543055 -59.149535,3.543055 -17.707027,-68.3" transform="matrix(0.325124 -0.141007 0.233304 0.537938 308.041573 187.52907)" fill="rgb(255,255,255)" stroke="rgb(0,0,0)" stroke-width="2"/></g><g id="papv2-right" transform="matrix(-0.999002 0.044657 0.044657 0.999002 676.632721 -12.975133)"><polygon id="papv2-left-o2" points="0,-68.3 59.149535,34.15 -59.149535,34.15 0,-68.3" transform="matrix(0.475956 -0.206422 0.245957 0.567114 298.520582 178.511924)" fill="rgb(247,103,60)" stroke="rgb(0,0,0)" stroke-width="4"/><polygon id="papv2-left-i2" points="-17.707027,-68.3 23.735481,3.543055 -59.149535,3.543055 -17.707027,-68.3" transform="matrix(0.325124 -0.141007 0.233304 0.537938 308.041573 187.52907)" fill="rgb(255,255,255)" stroke="rgb(0,0,0)" stroke-width="2"/></g></g><g id="papv2-right-i" transform="matrix(1 0 0 1 0 21.25035)"><ellipse id="papv2-i" rx="11.254067" ry="10.830517" transform="matrix(0.732267 0 0 1.103694 378.045757 244.046423)" fill="rgb(0,0,0)" stroke="none" stroke-width="0"/><ellipse id="papv2-glare" rx="5.578395" ry="5.415259" transform="matrix(0.385865 0 0 0.423877 373.518005 241.751019)" fill="rgb(255,255,255)" stroke="none" stroke-width="0"/></g><g id="papv2-left-i3" transform="matrix(1 0 0 1 0 21.25035)"><ellipse id="papv2-i2" rx="11.254067" ry="10.830517" transform="matrix(0.732267 0 0 1.103694 304.954243 244.046423)" fill="rgb(0,0,0)" stroke="none" stroke-width="0"/><ellipse id="papv2-glare2" rx="5.578395" ry="5.415259" transform="matrix(0.385865 0 0 0.423877 309.412199 241.751019)" fill="rgb(255,255,255)" stroke="none" stroke-width="0"/></g><ellipse id="papv2-nose" rx="15.745612" ry="5.91365" transform="matrix(0.777635 0 0 1.194688 341.5 303.147812)" fill="rgb(0,0,0)" stroke="none" stroke-width="0"/><ellipse id="papv2-ellipse1" style="mix-blend-mode:screen" rx="3.929842" ry="3.532484" transform="matrix(0.808135 0 0 0.644523 346.697947 301.665737)" opacity="0.86" fill="rgb(210,219,237)" stroke="none" stroke-width="0"/><path id="papv2-mouth" d="M329.255661,328.154827C335.062488,348.071649,347.288244,347.341265,353.744339,328.154827" transform="matrix(0.8062 0 0 1 66.182681 0)" fill="rgb(0,0,0)" stroke="none" stroke-width="1.366"/><path id="papv2-tongue" d="M347.999327,328.154828Q349.795717,328.154828,335.369937,328.154828C341.243122,347.980757,341.605929,347.165445,347.999327,328.154828Z" transform="matrix(1 0 0 0.717143 -0.184651 93.685587)" fill="rgb(241,21,101)" stroke="none" stroke-width="1.366"/></svg>